<svg width="22" height="22" viewBox="0 0 22 22" fill="none" xmlns="http://www.w3.org/2000/svg">
<path fill-rule="evenodd" clip-rule="evenodd" d="M11 2C6.02944 2 2 6.02944 2 11C2 15.9706 6.02944 20 11 20C15.9706 20 20 15.9706 20 11C20 6.02944 15.9706 2 11 2ZM0 11C0 4.92487 4.92487 0 11 0C17.0751 0 22 4.92487 22 11C22 17.0751 17.0751 22 11 22C4.92487 22 0 17.0751 0 11Z" fill="#EA202A"/>
<path d="M5.29289 11.7071C4.90237 11.3166 4.90237 10.6834 5.29289 10.2929C5.68342 9.90237 6.31658 9.90237 6.70711 10.2929L10 13.5858L10 7C10 6.44772 10.4477 6 11 6C11.5523 6 12 6.44772 12 7V13.5858L15.2929 10.2929C15.6834 9.90237 16.3166 9.90237 16.7071 10.2929C17.0976 10.6834 17.0976 11.3166 16.7071 11.7071L11.7083 16.7059C11.7043 16.71 11.7002 16.714 11.6961 16.718C11.5167 16.8919 11.2724 16.9992 11.003 17L11 17L10.997 17C10.8625 16.9996 10.7343 16.9727 10.6172 16.9241C10.4993 16.8753 10.3888 16.803 10.2929 16.7071L5.29289 11.7071Z" fill="#EA202A"/>
</svg>
